<?xml version="1.0" encoding="UTF-8" standalone="no"?>
<!DOCTYPE svg PUBLIC "-//W3C//DTD SVG 20010904//EN"
              "http://www.w3.org/TR/2001/REC-SVG-20010904/DTD/svg10.dtd">

<svg xmlns="http://www.w3.org/2000/svg"
     width="1.88in" height="2.82in"
     viewBox="0 0 564 846">
  <path id="Selection"
        fill="none" stroke="black" stroke-width="1"
        d="M 233.00,207.00
           C 228.21,196.58 231.58,186.78 236.12,177.00
             237.17,174.72 238.00,172.27 239.65,170.33
             242.01,167.54 247.32,164.12 250.62,162.06
             252.55,160.86 257.76,158.62 260.00,157.56
             263.26,156.03 267.36,155.64 270.69,155.06
             281.33,155.06 279.58,155.68 284.26,156.35
             284.26,156.35 292.09,158.26 292.09,158.26
             302.21,160.92 312.78,169.36 316.85,179.00
             320.76,188.23 320.35,195.17 319.78,202.83
             319.44,205.30 318.50,207.34 318.09,210.43
             318.80,210.33 320.12,208.20 321.30,207.61
             322.97,206.78 325.01,206.62 325.87,207.17
             327.54,208.37 327.00,212.20 326.98,214.00
             326.96,215.63 326.58,219.62 325.70,223.39
             324.97,226.49 323.79,230.25 323.13,231.30
             322.27,232.68 320.83,234.36 319.30,236.43
             318.66,237.31 317.22,238.78 315.17,238.13
             315.57,242.43 315.15,243.68 315.13,247.00
             315.10,251.35 315.37,259.26 317.85,262.79
             319.70,265.42 323.31,266.69 326.00,268.39
             326.00,268.39 358.58,283.52 358.58,283.52
             362.69,286.21 362.87,287.67 366.96,289.87
             367.79,290.32 368.89,293.46 370.52,294.30
             372.38,295.27 375.72,294.43 376.91,294.48
             380.86,294.64 382.87,294.17 387.13,294.91
             393.22,296.30 395.10,298.01 400.61,300.61
             402.93,301.70 413.84,309.59 415.83,311.43
             419.64,314.98 426.60,325.18 428.73,330.00
             430.84,334.77 431.09,337.96 431.52,341.26
             433.77,345.19 430.67,351.39 432.55,355.55
             435.35,361.76 442.56,366.36 445.45,372.36
             449.84,379.17 452.53,387.29 454.97,395.00
             454.97,395.00 460.09,419.82 460.09,419.82
             461.57,423.92 464.02,425.45 465.55,428.36
             468.39,433.79 468.80,440.35 468.82,449.27
             468.84,462.71 470.99,457.64 473.33,469.00
             473.33,469.00 474.67,478.00 474.67,478.00
             474.67,478.00 476.73,487.00 476.73,487.00
             476.73,487.00 477.32,497.61 476.38,507.75
             475.46,517.60 473.00,527.00 473.00,527.00
             473.05,530.62 471.50,535.92 472.12,537.88
             472.94,540.43 475.26,542.14 476.50,544.00
             477.23,545.09 476.94,546.94 477.12,548.81
             478.19,559.74 473.99,561.61 473.25,566.38
             472.80,569.29 475.38,574.06 476.94,575.50
             476.94,575.50 477.32,581.58 477.32,581.58
             477.32,581.58 477.00,595.38 477.00,595.38
             477.55,605.90 479.52,609.72 472.57,618.96
             468.04,624.98 465.45,623.83 459.00,626.03
             455.94,627.17 454.30,628.00 451.13,628.04
             451.13,628.04 448.22,627.74 448.22,627.74
             445.13,628.70 442.49,628.17 439.00,627.83
             427.72,626.74 422.33,621.30 414.00,614.13
             412.06,612.46 407.33,608.70 405.43,604.22
             404.62,602.28 406.28,599.61 406.09,599.13
             404.04,594.08 403.24,586.92 403.02,581.00
             403.02,581.00 403.34,572.12 403.34,572.12
             403.34,572.12 414.29,560.51 414.29,560.51
             420.63,554.82 431.95,548.67 432.49,539.00
             432.63,536.60 431.71,534.33 431.32,532.00
             430.69,528.17 431.30,527.07 429.65,523.00
             427.07,516.64 422.24,511.21 421.05,504.00
             421.05,504.00 421.05,494.00 421.05,494.00
             421.05,494.00 419.17,486.00 419.17,486.00
             417.93,479.23 418.79,473.45 414.00,468.00
             413.79,459.59 407.35,454.82 402.29,449.00
             396.10,441.88 394.64,438.46 391.00,430.00
             391.00,430.00 389.00,429.00 389.00,429.00
             389.00,429.00 375.42,440.61 375.42,440.61
             372.41,443.19 370.07,443.98 369.00,448.00
             363.01,454.01 364.93,457.45 365.00,465.00
             365.00,465.00 367.00,464.00 367.00,464.00
             366.71,470.36 364.88,489.41 363.29,495.00
             363.29,495.00 361.39,500.83 361.39,500.83
             359.91,504.10 357.02,506.18 357.97,510.00
             358.60,512.54 362.28,516.91 363.33,521.00
             363.33,521.00 364.39,537.00 364.39,537.00
             364.39,537.00 366.38,543.00 366.38,543.00
             366.38,543.00 368.36,551.00 368.36,551.00
             368.36,551.00 373.46,564.00 373.46,564.00
             373.46,564.00 376.37,575.00 376.37,575.00
             376.37,575.00 380.09,585.00 380.09,585.00
             380.09,585.00 386.96,599.28 386.96,599.28
             386.96,599.28 391.46,612.00 391.46,612.00
             391.46,612.00 395.29,620.00 395.29,620.00
             402.14,638.04 403.81,657.88 404.00,677.00
             404.07,683.38 404.38,692.86 403.00,699.00
             406.27,700.09 402.81,704.02 401.94,707.01
             401.94,707.01 400.48,716.00 400.48,716.00
             400.48,716.00 396.87,730.00 396.87,730.00
             395.02,742.44 394.56,736.02 394.96,750.00
             394.96,750.00 394.00,769.00 394.00,769.00
             394.02,780.49 398.16,793.75 403.25,804.00
             404.74,807.00 408.15,814.93 410.00,817.00
             410.00,817.00 412.00,839.00 412.00,839.00
             412.00,839.00 410.40,844.98 410.40,844.98
             410.40,844.98 403.00,846.00 403.00,846.00
             403.00,846.00 340.00,846.00 340.00,846.00
             340.00,846.00 340.00,810.00 340.00,810.00
             339.98,798.74 335.22,789.58 329.67,780.00
             329.67,780.00 324.81,772.00 324.81,772.00
             324.81,772.00 320.25,754.00 320.25,754.00
             320.25,754.00 315.09,742.00 315.09,742.00
             315.09,742.00 311.62,730.00 311.62,730.00
             311.62,730.00 306.86,720.00 306.86,720.00
             306.86,720.00 302.48,709.00 302.48,709.00
             302.48,709.00 296.32,697.17 296.32,697.17
             296.32,697.17 289.49,689.83 289.49,689.83
             289.49,689.83 284.42,682.17 284.42,682.17
             277.46,672.56 272.58,668.62 272.00,656.00
             272.00,656.00 269.80,647.94 268.55,647.73
             266.86,647.45 266.00,655.00 266.00,655.00
             266.00,655.00 265.26,663.74 265.26,663.74
             265.26,663.74 259.81,672.00 259.81,672.00
             254.11,682.71 247.52,693.00 240.21,702.73
             240.21,702.73 230.69,713.28 230.69,713.28
             230.69,713.28 225.37,725.00 225.37,725.00
             225.37,725.00 219.88,738.00 219.88,738.00
             215.21,749.29 215.35,744.04 214.66,756.96
             214.66,756.96 207.21,774.15 204.75,777.91
             202.36,781.56 196.68,786.58 195.37,790.42
             194.36,793.35 195.78,796.63 195.37,800.00
             195.07,802.62 194.06,803.67 194.03,808.00
             194.00,812.69 194.49,815.41 194.75,818.25
             195.04,821.41 194.79,843.22 194.00,846.00
             183.66,844.15 146.66,844.86 134.00,845.00
             125.30,845.11 118.53,849.18 118.94,839.00
             118.94,839.00 118.94,827.00 118.94,827.00
             119.14,815.61 124.25,802.01 129.48,792.00
             131.55,788.05 138.47,776.40 139.08,773.00
             139.08,773.00 139.59,767.00 139.59,767.00
             141.21,750.00 142.55,730.94 139.59,714.00
             139.59,714.00 133.18,686.00 133.18,686.00
             133.18,686.00 134.00,672.00 134.00,672.00
             134.00,672.00 133.01,657.00 133.01,657.00
             132.86,650.12 133.59,649.25 134.56,643.00
             135.44,637.40 134.45,636.51 136.16,630.00
             139.16,618.55 144.55,609.41 149.75,599.00
             149.75,599.00 158.59,581.00 158.59,581.00
             158.59,581.00 160.97,575.00 160.97,575.00
             160.97,575.00 168.05,565.00 168.05,565.00
             168.05,565.00 181.42,537.00 181.42,537.00
             184.37,530.24 193.51,514.36 194.00,508.00
             194.00,508.00 187.79,501.50 185.84,483.00
             185.54,480.21 185.10,478.95 185.32,476.00
             185.32,476.00 186.54,464.00 186.54,464.00
             188.14,458.36 192.50,451.01 190.32,445.00
             187.68,437.74 180.98,435.29 176.13,429.98
             170.32,423.64 172.47,421.82 163.00,420.00
             163.00,420.00 158.55,433.58 158.55,433.58
             158.55,433.58 142.06,452.09 142.06,452.09
             135.47,461.89 136.54,464.85 132.75,472.00
             132.75,472.00 126.47,481.00 126.47,481.00
             126.47,481.00 121.45,490.00 121.45,490.00
             107.87,511.83 98.17,517.76 90.12,544.00
             90.12,544.00 86.69,553.62 86.69,553.62
             85.40,560.82 94.05,559.22 98.64,567.00
             104.12,576.30 103.20,586.31 99.88,596.38
             99.88,596.38 96.00,602.00 96.00,602.00
             100.11,606.95 97.25,608.94 93.55,613.06
             88.91,618.24 75.93,622.91 69.00,623.00
             61.54,623.09 58.25,623.31 51.00,620.79
             46.62,619.27 43.62,616.93 40.00,614.11
             26.94,603.96 29.54,597.50 28.47,583.01
             27.80,573.80 33.40,565.67 37.46,558.00
             41.43,550.53 46.30,536.44 48.00,528.00
             54.93,523.84 53.61,523.09 53.61,523.09
             53.61,523.09 57.19,490.69 57.19,490.69
             57.19,490.69 67.14,465.04 67.14,465.04
             68.75,461.10 70.84,460.27 72.39,455.99
             74.99,448.80 74.70,442.59 78.80,435.00
             78.80,435.00 88.39,420.42 88.39,420.42
             92.14,416.27 100.71,411.73 103.75,406.50
             103.75,406.50 103.83,400.88 105.03,396.81
             106.04,393.41 106.75,392.27 108.38,388.38
             111.37,381.19 115.70,375.17 115.70,375.17
             121.16,366.26 125.57,365.76 128.26,359.78
             128.26,359.78 128.27,354.01 129.12,348.88
             129.91,344.13 131.54,340.00 131.54,340.00
             131.54,340.00 132.52,333.09 132.52,333.09
             133.37,330.09 136.41,322.93 142.50,316.16
             149.84,308.00 160.37,300.79 168.52,297.83
             174.97,295.30 179.61,295.68 184.74,295.43
             187.98,295.28 192.96,296.46 194.43,295.48
             196.33,293.76 198.58,290.73 200.17,289.39
             203.71,286.43 205.27,285.49 210.30,283.09
             213.11,281.74 219.80,280.09 224.39,277.74
             228.18,275.80 230.13,273.02 231.01,272.69
             233.53,271.74 237.26,271.68 238.61,270.13
             240.19,268.31 238.65,266.03 238.75,263.50
             238.83,261.46 239.28,258.80 239.00,256.62
             238.58,253.44 238.42,252.98 237.62,249.88
             237.23,248.33 236.59,248.14 236.06,246.12
             235.33,243.33 234.19,239.56 233.69,237.88
             232.41,233.58 233.19,230.36 231.32,226.00
             228.75,220.00 221.77,208.88 233.00,207.00 Z
           M 277.00,664.00
           C 277.00,664.00 276.00,664.00 276.00,664.00
             276.00,664.00 277.00,665.00 277.00,665.00
             277.00,665.00 277.00,664.00 277.00,664.00 Z
           M 396.00,731.00
           C 396.00,731.00 395.00,731.00 395.00,731.00
             395.00,731.00 396.00,732.00 396.00,732.00
             396.00,732.00 396.00,731.00 396.00,731.00 Z
           M 195.00,799.00
           C 195.00,799.00 194.00,799.00 194.00,799.00
             194.00,799.00 195.00,800.00 195.00,800.00
             195.00,800.00 195.00,799.00 195.00,799.00 Z
           M 414.00,829.00
           C 414.00,829.00 415.00,829.00 415.00,829.00
             415.00,829.00 414.00,830.00 414.00,830.00
             414.00,830.00 414.00,829.00 414.00,829.00 Z
           M 196.00,830.00
           C 196.00,830.00 197.00,830.00 197.00,830.00
             197.00,830.00 196.00,831.00 196.00,831.00
             196.00,831.00 196.00,830.00 196.00,830.00 Z
           M 413.00,844.00
           C 413.00,844.00 414.00,844.00 414.00,844.00
             414.00,844.00 413.00,845.00 413.00,845.00
             413.00,845.00 413.00,844.00 413.00,844.00 Z" />
</svg>
